<svg width="86" height="86" viewBox="0 0 86 86" fill="none" xmlns="http://www.w3.org/2000/svg">
<rect width="86" height="86" rx="43" fill="#F8F8F8"/>
<path d="M57.4289 41.8992L34.2127 27.711C34.0171 27.5915 33.7933 27.5262 33.5642 27.522C33.335 27.5177 33.1089 27.5745 32.909 27.6866C32.7091 27.7987 32.5427 27.962 32.4269 28.1598C32.3111 28.3575 32.25 28.5826 32.25 28.8117V57.1881C32.25 57.4172 32.3111 57.6423 32.4269 57.84C32.5427 58.0378 32.7091 58.2011 32.909 58.3132C33.1089 58.4253 33.335 58.4821 33.5642 58.4778C33.7933 58.4735 34.0171 58.4083 34.2127 58.2888L57.4289 44.1006C57.6175 43.9854 57.7733 43.8236 57.8814 43.6309C57.9895 43.4382 58.0462 43.2209 58.0462 42.9999C58.0462 42.7789 57.9895 42.5616 57.8814 42.3689C57.7733 42.1761 57.6175 42.0144 57.4289 41.8992Z" fill="#3C2031"/>
</svg>
