<svg width="102" height="19" viewBox="0 0 102 19" fill="none" xmlns="http://www.w3.org/2000/svg">
<path d="M8.94903 1.73677C8.98219 1.66979 9.0334 1.6134 9.0969 1.57398C9.1604 1.53456 9.23365 1.51367 9.30839 1.51367C9.38312 1.51367 9.45638 1.53456 9.51987 1.57398C9.58337 1.6134 9.63458 1.66979 9.66774 1.73677L11.4153 5.27658C11.5305 5.50957 11.7004 5.71114 11.9106 5.864C12.1207 6.01685 12.3649 6.11642 12.622 6.15416L16.5302 6.7261C16.6043 6.73683 16.6739 6.76807 16.7311 6.81628C16.7883 6.86449 16.8309 6.92775 16.8541 6.99891C16.8772 7.07007 16.88 7.14628 16.862 7.21893C16.8441 7.29158 16.8062 7.35777 16.7527 7.41001L13.9263 10.1623C13.7399 10.3439 13.6004 10.5681 13.5199 10.8156C13.4394 11.0631 13.4202 11.3265 13.464 11.583L14.1313 15.4716C14.1444 15.5456 14.1364 15.6218 14.1082 15.6915C14.0801 15.7612 14.0329 15.8216 13.9721 15.8658C13.9112 15.9099 13.8392 15.9361 13.7643 15.9413C13.6893 15.9466 13.6143 15.9306 13.548 15.8953L10.0543 14.0584C9.82413 13.9375 9.56801 13.8744 9.30801 13.8744C9.048 13.8744 8.79189 13.9375 8.56169 14.0584L5.06878 15.8953C5.00245 15.9304 4.92761 15.9462 4.85275 15.9409C4.77789 15.9355 4.70603 15.9093 4.64534 15.8652C4.58465 15.821 4.53757 15.7608 4.50944 15.6912C4.48131 15.6216 4.47328 15.5455 4.48625 15.4716L5.15275 11.5838C5.19678 11.3271 5.17771 11.0636 5.09718 10.8159C5.01665 10.5683 4.87708 10.344 4.69051 10.1623L1.86411 7.41076C1.81008 7.35859 1.7718 7.29229 1.75362 7.21942C1.73544 7.14654 1.7381 7.07003 1.76128 6.9986C1.78446 6.92716 1.82724 6.86367 1.88474 6.81536C1.94225 6.76705 2.01216 6.73586 2.08653 6.72534L5.99402 6.15416C6.25143 6.11671 6.49589 6.01727 6.70636 5.8644C6.91682 5.71153 7.08698 5.5098 7.2022 5.27658L8.94903 1.73677Z" fill="#EED5E8" stroke="#3C2031" stroke-width="1.51306" stroke-linecap="round" stroke-linejoin="round"/>
<path d="M29.8294 1.73677C29.8626 1.66979 29.9138 1.6134 29.9773 1.57398C30.0408 1.53456 30.114 1.51367 30.1888 1.51367C30.2635 1.51367 30.3367 1.53456 30.4002 1.57398C30.4637 1.6134 30.515 1.66979 30.5481 1.73677L32.2957 5.27658C32.4108 5.50957 32.5808 5.71114 32.7909 5.864C33.0011 6.01685 33.2452 6.11642 33.5024 6.15416L37.4106 6.7261C37.4847 6.73683 37.5542 6.76807 37.6115 6.81628C37.6687 6.86449 37.7113 6.92775 37.7344 6.99891C37.7576 7.07007 37.7603 7.14628 37.7424 7.21893C37.7245 7.29158 37.6866 7.35777 37.633 7.41001L34.8066 10.1623C34.6202 10.3439 34.4808 10.5681 34.4002 10.8156C34.3197 11.0631 34.3006 11.3265 34.3444 11.583L35.0117 15.4716C35.0247 15.5456 35.0167 15.6218 34.9886 15.6915C34.9604 15.7612 34.9132 15.8216 34.8524 15.8658C34.7916 15.9099 34.7196 15.9361 34.6446 15.9413C34.5696 15.9466 34.4947 15.9306 34.4284 15.8953L30.9347 14.0584C30.7045 13.9375 30.4484 13.8744 30.1884 13.8744C29.9284 13.8744 29.6723 13.9375 29.4421 14.0584L25.9491 15.8953C25.8828 15.9304 25.808 15.9462 25.7331 15.9409C25.6583 15.9355 25.5864 15.9093 25.5257 15.8652C25.465 15.821 25.4179 15.7608 25.3898 15.6912C25.3617 15.6216 25.3537 15.5455 25.3666 15.4716L26.0331 11.5838C26.0772 11.3271 26.0581 11.0636 25.9775 10.8159C25.897 10.5683 25.7574 10.344 25.5709 10.1623L22.7445 7.41076C22.6905 7.35859 22.6522 7.29229 22.634 7.21942C22.6158 7.14654 22.6185 7.07003 22.6416 6.9986C22.6648 6.92716 22.7076 6.86367 22.7651 6.81536C22.8226 6.76705 22.8925 6.73586 22.9669 6.72534L26.8744 6.15416C27.1318 6.11671 27.3763 6.01727 27.5867 5.8644C27.7972 5.71153 27.9674 5.5098 28.0826 5.27658L29.8294 1.73677Z" fill="#EED5E8" stroke="#3C2031" stroke-width="1.51306" stroke-linecap="round" stroke-linejoin="round"/>
<path d="M50.7098 1.73677C50.7429 1.66979 50.7941 1.6134 50.8576 1.57398C50.9211 1.53456 50.9944 1.51367 51.0691 1.51367C51.1439 1.51367 51.2171 1.53456 51.2806 1.57398C51.3441 1.6134 51.3953 1.66979 51.4285 1.73677L53.1761 5.27658C53.2912 5.50957 53.4611 5.71114 53.6713 5.864C53.8815 6.01685 54.1256 6.11642 54.3827 6.15416L58.291 6.7261C58.365 6.73683 58.4346 6.76807 58.4918 6.81628C58.5491 6.86449 58.5917 6.92775 58.6148 6.99891C58.6379 7.07007 58.6407 7.14628 58.6228 7.21893C58.6049 7.29158 58.567 7.35777 58.5134 7.41001L55.687 10.1623C55.5006 10.3439 55.3611 10.5681 55.2806 10.8156C55.2001 11.0631 55.1809 11.3265 55.2248 11.583L55.892 15.4716C55.9051 15.5456 55.8971 15.6218 55.8689 15.6915C55.8408 15.7612 55.7936 15.8216 55.7328 15.8658C55.672 15.9099 55.6 15.9361 55.525 15.9413C55.45 15.9466 55.3751 15.9306 55.3087 15.8953L51.8151 14.0584C51.5849 13.9375 51.3288 13.8744 51.0687 13.8744C50.8087 13.8744 50.5526 13.9375 50.3224 14.0584L46.8295 15.8953C46.7632 15.9304 46.6883 15.9462 46.6135 15.9409C46.5386 15.9355 46.4668 15.9093 46.4061 15.8652C46.3454 15.821 46.2983 15.7608 46.2702 15.6912C46.2421 15.6216 46.234 15.5455 46.247 15.4716L46.9135 11.5838C46.9575 11.3271 46.9384 11.0636 46.8579 10.8159C46.7774 10.5683 46.6378 10.344 46.4513 10.1623L43.6248 7.41076C43.5708 7.35859 43.5325 7.29229 43.5144 7.21942C43.4962 7.14654 43.4988 7.07003 43.522 6.9986C43.5452 6.92716 43.588 6.86367 43.6455 6.81536C43.703 6.76705 43.7729 6.73586 43.8473 6.72534L47.7548 6.15416C48.0122 6.11671 48.2566 6.01727 48.4671 5.8644C48.6776 5.71153 48.8477 5.5098 48.9629 5.27658L50.7098 1.73677Z" fill="#EED5E8" stroke="#3C2031" stroke-width="1.51306" stroke-linecap="round" stroke-linejoin="round"/>
<path d="M71.5901 1.73677C71.6233 1.66979 71.6745 1.6134 71.738 1.57398C71.8015 1.53456 71.8748 1.51367 71.9495 1.51367C72.0242 1.51367 72.0975 1.53456 72.161 1.57398C72.2245 1.6134 72.2757 1.66979 72.3089 1.73677L74.0564 5.27658C74.1716 5.50957 74.3415 5.71114 74.5517 5.864C74.7619 6.01685 75.006 6.11642 75.2631 6.15416L79.1714 6.7261C79.2454 6.73683 79.315 6.76807 79.3722 6.81628C79.4294 6.86449 79.472 6.92775 79.4952 6.99891C79.5183 7.07007 79.5211 7.14628 79.5032 7.21893C79.4852 7.29158 79.4474 7.35777 79.3938 7.41001L76.5674 10.1623C76.381 10.3439 76.2415 10.5681 76.161 10.8156C76.0805 11.0631 76.0613 11.3265 76.1051 11.583L76.7724 15.4716C76.7855 15.5456 76.7775 15.6218 76.7493 15.6915C76.7212 15.7612 76.674 15.8216 76.6132 15.8658C76.5524 15.9099 76.4804 15.9361 76.4054 15.9413C76.3304 15.9466 76.2555 15.9306 76.1891 15.8953L72.6954 14.0584C72.4652 13.9375 72.2091 13.8744 71.9491 13.8744C71.6891 13.8744 71.433 13.9375 71.2028 14.0584L67.7099 15.8953C67.6436 15.9304 67.5687 15.9462 67.4939 15.9409C67.419 15.9355 67.3471 15.9093 67.2865 15.8652C67.2258 15.821 67.1787 15.7608 67.1506 15.6912C67.1224 15.6216 67.1144 15.5455 67.1274 15.4716L67.7939 11.5838C67.8379 11.3271 67.8188 11.0636 67.7383 10.8159C67.6578 10.5683 67.5182 10.344 67.3316 10.1623L64.5052 7.41076C64.4512 7.35859 64.4129 7.29229 64.3947 7.21942C64.3766 7.14654 64.3792 7.07003 64.4024 6.9986C64.4256 6.92716 64.4684 6.86367 64.5259 6.81536C64.5834 6.76705 64.6533 6.73586 64.7276 6.72534L68.6351 6.15416C68.8925 6.11671 69.137 6.01727 69.3475 5.8644C69.5579 5.71153 69.7281 5.5098 69.8433 5.27658L71.5901 1.73677Z" fill="#EED5E8" stroke="#3C2031" stroke-width="1.51306" stroke-linecap="round" stroke-linejoin="round"/>
<path d="M92.47 1.73677C92.5032 1.66979 92.5544 1.6134 92.6179 1.57398C92.6814 1.53456 92.7546 1.51367 92.8294 1.51367C92.9041 1.51367 92.9774 1.53456 93.0409 1.57398C93.1044 1.6134 93.1556 1.66979 93.1887 1.73677L94.9363 5.27658C95.0515 5.50957 95.2214 5.71114 95.4316 5.864C95.6417 6.01685 95.8859 6.11642 96.143 6.15416L100.051 6.7261C100.125 6.73683 100.195 6.76807 100.252 6.81628C100.309 6.86449 100.352 6.92775 100.375 6.99891C100.398 7.07007 100.401 7.14628 100.383 7.21893C100.365 7.29158 100.327 7.35777 100.274 7.41001L97.4473 10.1623C97.2609 10.3439 97.1214 10.5681 97.0409 10.8156C96.9604 11.0631 96.9412 11.3265 96.985 11.583L97.6523 15.4716C97.6653 15.5456 97.6574 15.6218 97.6292 15.6915C97.601 15.7612 97.5539 15.8216 97.4931 15.8658C97.4322 15.9099 97.3602 15.9361 97.2853 15.9413C97.2103 15.9466 97.1353 15.9306 97.069 15.8953L93.5753 14.0584C93.3451 13.9375 93.089 13.8744 92.829 13.8744C92.569 13.8744 92.3129 13.9375 92.0827 14.0584L88.5898 15.8953C88.5234 15.9304 88.4486 15.9462 88.3737 15.9409C88.2989 15.9355 88.227 15.9093 88.1663 15.8652C88.1056 15.821 88.0586 15.7608 88.0304 15.6912C88.0023 15.6216 87.9943 15.5455 88.0072 15.4716L88.6737 11.5838C88.7178 11.3271 88.6987 11.0636 88.6182 10.8159C88.5376 10.5683 88.3981 10.344 88.2115 10.1623L85.3851 7.41076C85.3311 7.35859 85.2928 7.29229 85.2746 7.21942C85.2564 7.14654 85.2591 7.07003 85.2823 6.9986C85.3055 6.92716 85.3482 6.86367 85.4057 6.81536C85.4632 6.76705 85.5332 6.73586 85.6075 6.72534L89.515 6.15416C89.7724 6.11671 90.0169 6.01727 90.2274 5.8644C90.4378 5.71153 90.608 5.5098 90.7232 5.27658L92.47 1.73677Z" fill="#EED5E8" stroke="#3C2031" stroke-width="1.51306" stroke-linecap="round" stroke-linejoin="round"/>
</svg>
