<svg width="74" height="74" viewBox="0 0 74 74" fill="none" xmlns="http://www.w3.org/2000/svg">
<circle cx="37" cy="37" r="37" fill="#3C2031"/>
<path d="M36.3498 49.3392C33.5871 49.3503 31.4385 48.693 29.9038 47.3672C28.3937 46.0412 27.4744 44.3799 27.1456 42.3833L31.0306 42.3676C31.3557 43.4516 31.9512 44.3249 32.8172 44.9874C33.7078 45.6251 34.8684 45.9411 36.299 45.9354C37.9764 45.9286 39.245 45.5042 40.1049 44.662C40.9649 43.8199 41.3922 42.7451 41.3869 41.4378C41.3813 40.0318 40.8836 38.9608 39.894 38.2248C38.9289 37.464 37.7187 37.0866 36.2634 37.0924L33.8584 37.1021L33.8463 34.1052L36.1773 34.0958C37.534 34.0903 38.6673 33.7527 39.5772 33.083C40.5119 32.4133 40.9764 31.3877 40.9708 30.0064C40.9656 28.6991 40.5174 27.6649 39.6263 26.9038C38.7599 26.1426 37.5991 25.765 36.1437 25.7708C34.7871 25.7763 33.7031 26.1137 32.8918 26.783C32.105 27.4275 31.6028 28.2805 31.3851 29.342L27.6481 29.3571C27.9366 27.4813 28.7564 25.8746 30.1077 24.5372C31.459 23.1997 33.479 22.5255 36.1676 22.5147C38.1163 22.5069 39.7333 22.858 41.0189 23.5682C42.3044 24.2783 43.2455 25.1995 43.8421 26.3318C44.4632 27.4393 44.7762 28.6097 44.7812 29.843C44.7865 31.1504 44.4948 32.2245 43.9062 33.0656C43.3176 33.9066 42.6788 34.5259 41.9897 34.9233C41.3006 35.3208 40.8451 35.52 40.6231 35.5208L40.624 35.7428C40.9448 35.7909 41.4513 35.9985 42.1435 36.3657C42.8602 36.7082 43.5287 37.3221 44.1489 38.2077C44.7939 39.0931 45.1193 40.2758 45.1253 41.7557C45.1307 43.1124 44.8151 44.3717 44.1785 45.5336C43.5417 46.6708 42.5588 47.5875 41.2296 48.2835C39.925 48.9794 38.2984 49.3313 36.3498 49.3392Z" fill="#FCD9A1"/>
</svg>
