<svg width="74" height="74" viewBox="0 0 74 74" fill="none" xmlns="http://www.w3.org/2000/svg">
<circle cx="37" cy="37" r="37" fill="#3C2031"/>
<path d="M27.6946 45.7851L33.1877 40.8419C33.6792 40.3959 34.0479 40.0737 34.2938 39.8754C35.8916 38.5123 37.1205 37.3973 37.9803 36.5305C38.8647 35.6389 39.601 34.6986 40.189 33.7096C40.7769 32.6959 41.0686 31.634 41.0641 30.524C41.0589 29.2167 40.6598 28.1206 39.8669 27.2358C39.0986 26.3509 37.9252 25.9116 36.3465 25.918C34.4472 25.9257 33.1544 26.4736 32.4681 27.5617C31.8064 28.625 31.4781 29.798 31.4833 31.0807L31.4845 31.3767L27.7105 31.3919C27.7042 29.8132 28.0066 28.3567 28.6179 27.0222C29.2539 25.6876 30.2116 24.6231 31.4911 23.8286C32.7951 23.0093 34.3968 22.5958 36.2961 22.5882C38.1461 22.5807 39.7016 22.9445 40.9625 23.6794C42.2234 24.3896 43.1646 25.3355 43.786 26.517C44.4074 27.6985 44.7209 28.9799 44.7265 30.3613C44.7326 31.8659 44.4052 33.2609 43.7444 34.5463C43.0835 35.8069 42.2862 36.9078 41.3527 37.8489C40.4437 38.7653 39.1535 39.9545 37.482 41.4166L32.8363 45.4683L32.8371 45.6533L45.047 45.6041L45.0607 49.0081L27.7078 49.078L27.6946 45.7851Z" fill="#FCD9A1"/>
</svg>
